<svg preserveAspectRatio="none" width="100%" height="100%" overflow="visible" style="display: block;" viewBox="0 0 77.6186 88.6841" fill="none" xmlns="http://www.w3.org/2000/svg">
<path id="Vector" d="M77.6105 49.9218C77.6078 49.8089 77.6065 49.6959 77.6011 49.5816C77.597 49.4485 77.5917 49.3154 77.5876 49.1823C77.5836 49.0357 77.5769 48.8878 77.5675 48.7412C77.5607 48.604 77.554 48.4642 77.546 48.3257C77.5352 48.1549 77.5244 47.9855 77.511 47.8174C77.4975 47.6264 77.4827 47.4355 77.4639 47.2446C77.4128 46.665 77.3483 46.0908 77.273 45.5193C77.2568 45.4131 77.2447 45.3082 77.2286 45.2046C77.1883 44.9155 77.1439 44.6278 77.0955 44.3414C77.0955 44.3306 77.0928 44.3185 77.0888 44.3077C77.0726 44.2015 77.0551 44.0953 77.035 43.9877C77.004 43.7994 76.9677 43.6098 76.9328 43.4243C76.9126 43.3113 76.8911 43.1997 76.8682 43.0894C76.8171 42.8326 76.7633 42.5771 76.7055 42.3216C76.6571 42.0984 76.6033 41.8792 76.5536 41.6506C76.5199 41.4946 76.4823 41.34 76.4393 41.1867L76.4204 41.1181C76.3787 40.9433 76.294 40.6273 76.247 40.4538C76.2349 40.4041 76.2201 40.3543 76.2053 40.3059C76.1878 40.2387 76.1703 40.1728 76.1502 40.1083C76.1085 39.955 76.0641 39.8043 76.017 39.6511C75.9727 39.4978 75.9256 39.3471 75.8799 39.1939C75.8153 38.9827 75.7467 38.7743 75.6782 38.5659C75.5988 38.3238 75.5155 38.0818 75.4321 37.8424C75.381 37.6932 75.3259 37.5453 75.2721 37.396C75.2169 37.2467 75.1605 37.0988 75.1053 36.9522C75.0448 36.7882 74.9816 36.6255 74.9171 36.4641C74.8794 36.3646 74.8391 36.2665 74.8001 36.1696C74.7154 35.9612 74.6293 35.7501 74.5406 35.5417C74.5338 35.5282 74.5271 35.5134 74.5204 35.4973C74.4518 35.3373 74.3832 35.1772 74.312 35.0172C74.2098 34.7886 74.1062 34.56 73.9986 34.3314C73.961 34.2494 73.9206 34.1687 73.883 34.0867C73.7189 33.7384 73.5482 33.3942 73.372 33.0526C73.2738 32.8617 73.1743 32.6734 73.0721 32.4838C72.9431 32.2418 72.8126 32.0024 72.6795 31.7644C72.5948 31.6138 72.5087 31.4645 72.4227 31.3166C72.3299 31.1539 72.2344 30.9952 72.1389 30.8352C72.0569 30.6994 71.9762 30.5663 71.8928 30.4318C71.8014 30.2852 71.7113 30.1387 71.6172 29.9948C71.5728 29.9222 71.5257 29.8509 71.48 29.7796C71.433 29.707 71.3872 29.6358 71.3375 29.5618C69.5423 26.8227 67.4083 24.339 64.9959 22.1727C61.3867 18.9279 57.1577 16.3932 52.5171 14.7809C50.7502 14.1677 48.9254 13.6863 47.0496 13.3542C44.9787 12.983 42.8474 12.7907 40.673 12.7907C38.5 12.7907 36.3687 12.9844 34.2978 13.3542C32.422 13.6877 30.5959 14.1691 28.8303 14.7809C24.1871 16.3918 19.958 18.9266 16.3515 22.1727C16.3206 22.1996 16.2897 22.2265 16.2587 22.2547C16.2547 22.2588 16.252 22.2614 16.248 22.2655V14.7822H16.2574V0H0V13.3528V88.1193H16.2574V79.2187C17.0615 79.9462 17.8952 80.6374 18.7585 81.2923C23.2646 84.7064 28.5519 87.0946 34.2965 88.1206C36.3673 88.4918 38.4987 88.6841 40.6717 88.6841C42.8474 88.6841 44.9774 88.4904 47.0482 88.1206C52.7928 87.0946 58.0801 84.7064 62.5862 81.2923C65.359 79.1905 67.8359 76.7015 69.9403 73.9032C71.6468 71.6306 73.1098 69.1537 74.2837 66.5141C75.3312 64.1702 76.1502 61.6947 76.7136 59.1223C76.7445 58.9824 76.7741 58.8452 76.8023 58.7054C76.84 58.5279 76.8749 58.3504 76.9086 58.1702C76.9395 58.0062 76.9731 57.8394 77.0013 57.6727C77.043 57.4441 77.0834 57.2155 77.1183 56.9842C77.1398 56.8551 77.16 56.7247 77.1788 56.5956C77.203 56.4517 77.2232 56.3091 77.2434 56.1653C77.2568 56.0658 77.2703 55.9649 77.2837 55.8654C77.3348 55.4862 77.3792 55.1016 77.4169 54.7184C77.4303 54.5879 77.4437 54.4589 77.4545 54.3271C77.4612 54.2625 77.468 54.1966 77.472 54.1321C77.4854 53.9748 77.4989 53.8147 77.5096 53.6547C77.5231 53.488 77.5338 53.3199 77.5446 53.1505C77.5621 52.8358 77.5782 52.5198 77.5917 52.2051C77.5957 52.0478 77.6024 51.8905 77.6078 51.7318C77.6145 51.401 77.6186 51.0675 77.6186 50.7354C77.6186 50.5996 77.6186 50.4624 77.6159 50.3266C77.6145 50.1935 77.6132 50.0577 77.6105 49.9218ZM62.168 51.7331C62.0524 54.3351 61.4889 56.8228 60.5476 59.1223C59.4154 61.9031 57.7332 64.4096 55.6328 66.5141C51.4642 70.6987 45.6538 73.2927 39.2234 73.2927C32.7931 73.2927 26.9827 70.6974 22.8141 66.5141C20.7137 64.4096 19.0315 61.9044 17.8993 59.1223C16.958 56.8228 16.3717 54.3351 16.256 51.7331V50.7367C16.256 48.5153 16.5828 46.3678 17.1946 44.3414C18.0068 41.6318 19.326 39.132 21.0458 36.9522C23.6626 33.6255 27.2072 31.0396 31.2965 29.5605C33.7667 28.6676 36.4372 28.1821 39.2234 28.1821C42.0097 28.1821 44.6789 28.6676 47.1504 29.5605C51.2396 31.0383 54.7843 33.6241 57.401 36.9522C59.1209 39.132 60.4401 41.6318 61.2523 44.3414C61.8654 46.3678 62.1909 48.5139 62.1909 50.7367C62.1909 51.0716 62.1841 51.4024 62.168 51.7331Z" fill="var(--fill-0, #FF7B4C)"/>
</svg>
