<svg preserveAspectRatio="none" width="100%" height="100%" overflow="visible" style="display: block;" viewBox="0 0 77.6186 88.6881" fill="none" xmlns="http://www.w3.org/2000/svg">
<path id="Vector" d="M61.3679 13.3542V14.7809V22.2547C61.337 22.2265 61.306 22.1996 61.2751 22.1727C60.6431 21.6025 59.9923 21.0539 59.3213 20.5295C56.172 18.066 52.6247 16.1108 48.795 14.7809C47.0308 14.1677 45.2033 13.6863 43.3275 13.3542C41.2566 12.983 39.1253 12.7907 36.9522 12.7907C34.7765 12.7907 32.6465 12.9844 30.5757 13.3542C28.6999 13.6877 26.8738 14.1691 25.1082 14.7809C20.4649 16.3918 16.2359 18.9266 12.6294 22.1727C12.5917 22.2036 12.5541 22.2399 12.5164 22.2749C12.4035 22.3744 12.2919 22.4766 12.1816 22.5815C12.0323 22.7186 11.8844 22.8585 11.7378 23.001C11.5913 23.1409 11.4474 23.2834 11.3022 23.4246C11.2484 23.4757 11.1959 23.5295 11.1422 23.5846L10.9821 23.7446C10.771 23.9571 10.5653 24.1709 10.3622 24.3888C10.2627 24.4936 10.1646 24.5999 10.0677 24.7061C9.91041 24.8769 9.75441 25.0503 9.60112 25.2238C9.53657 25.2951 9.47473 25.3663 9.41287 25.439C9.35102 25.5102 9.28916 25.5828 9.22596 25.6541C9.05518 25.8518 8.88844 26.0495 8.72439 26.2512C8.54958 26.4636 8.37611 26.6801 8.20265 26.8966V26.8993C8.1381 26.9813 8.07355 27.0634 8.009 27.1454C7.77771 27.4426 7.55182 27.7451 7.32994 28.049C7.21161 28.2117 7.0946 28.3758 6.97896 28.5398C6.86197 28.7079 6.74364 28.8774 6.628 29.0481C6.57421 29.1275 6.52177 29.2055 6.46799 29.2861C6.40613 29.3789 6.34427 29.4704 6.28376 29.5631C4.77636 31.8599 3.50696 34.3382 2.51458 36.9549C1.61766 39.3122 0.945323 41.7851 0.523089 44.344C0.411479 45.0056 0.318687 45.6753 0.246074 46.3503C0.0820206 47.7905 0 49.2535 0 50.7381C0 51.0716 0.00402818 51.4037 0.0107517 51.7345C0.0147857 51.8918 0.0215086 52.0492 0.0268874 52.2078C0.0336108 52.3652 0.0403376 52.5225 0.0470611 52.6812C0.0631974 52.9958 0.082014 53.3091 0.104874 53.6225C0.115631 53.7784 0.129082 53.9358 0.142529 54.0904C0.145219 54.1065 0.145223 54.124 0.146567 54.1388C0.164048 54.3472 0.184212 54.5543 0.207072 54.7601C0.247413 55.1702 0.295831 55.5817 0.350964 55.9878C0.361721 56.059 0.371129 56.1276 0.379197 56.1962C0.402057 56.3495 0.423573 56.5028 0.447778 56.6561C0.478706 56.878 0.516363 57.0998 0.554014 57.3204C0.578219 57.471 0.605108 57.6216 0.633347 57.7735C0.661585 57.9335 0.691176 58.0936 0.724793 58.2536C0.742274 58.3423 0.759742 58.4338 0.778568 58.5225C0.818909 58.7242 0.860603 58.9259 0.904978 59.1263C1.1161 60.0824 1.35948 61.029 1.63918 61.9569C2.10982 63.5234 2.67863 65.047 3.33484 66.5181C4.51145 69.1577 5.97448 71.6347 7.6809 73.9072C9.78535 76.7068 12.2623 79.1945 15.035 81.2963C19.5411 84.7105 24.8285 87.0987 30.573 88.1247C32.6438 88.4958 34.7752 88.6881 36.9496 88.6881C39.1226 88.6881 41.2539 88.4944 43.3248 88.1247C49.0693 87.0987 54.3567 84.7105 58.8627 81.2963C59.726 80.6414 60.5611 79.9516 61.3639 79.2228V88.1233H77.6186V0H61.3639V13.3542H61.3679ZM59.726 59.1223C58.5938 61.9031 56.9116 64.4096 54.8112 66.5141C50.6426 70.6987 44.8322 73.2927 38.4018 73.2927C31.9715 73.2927 26.1584 70.6974 21.9898 66.5141C19.8921 64.4096 18.2099 61.9044 17.0776 59.1223C16.6231 58.0169 16.2587 56.8672 15.9898 55.6812C15.6966 54.4024 15.5164 53.0846 15.4573 51.7318C15.4506 51.5852 15.4465 51.436 15.4411 51.2881C15.4371 51.1038 15.4344 50.9196 15.4344 50.7354C15.4344 50.5606 15.4371 50.3844 15.4411 50.211C15.4411 50.1827 15.4438 50.1558 15.4438 50.1249C15.4479 49.9474 15.4546 49.7726 15.464 49.5964C15.4734 49.4216 15.4842 49.2455 15.4976 49.072C15.5003 49.0249 15.5043 48.9792 15.5084 48.9348C15.5151 48.8434 15.5218 48.7506 15.5326 48.6592C15.542 48.5462 15.5528 48.4346 15.5662 48.3217C15.577 48.2127 15.5891 48.1065 15.6038 48.0003C15.6133 47.9223 15.6213 47.847 15.6321 47.7717C15.6482 47.652 15.663 47.5323 15.6832 47.414C15.6966 47.3212 15.7101 47.2271 15.7276 47.1343C15.7249 47.1316 15.7276 47.1303 15.7276 47.1303C15.7276 47.1168 15.7303 47.1034 15.7343 47.0899C15.7572 46.9474 15.7813 46.8075 15.8082 46.6677C15.8298 46.5413 15.8553 46.4149 15.8809 46.2885C15.897 46.2159 15.9118 46.1419 15.9279 46.0693C15.9562 45.9267 15.9884 45.7896 16.0207 45.6497C16.096 45.3324 16.1767 45.015 16.2668 44.7017C16.2977 44.5861 16.3313 44.4704 16.3663 44.3575C16.3663 44.3508 16.369 44.3467 16.3703 44.34C17.0655 42.0298 18.1265 39.8743 19.4887 37.9366L19.4914 37.9339C19.724 37.599 19.9687 37.2723 20.2215 36.9509C22.8383 33.6241 26.3829 31.0383 30.4735 29.5591C32.9437 28.6662 35.6143 28.1808 38.4005 28.1808C39.4077 28.1808 40.4027 28.2453 41.3776 28.3691C43.0935 28.5869 44.7515 28.9903 46.3275 29.5591C50.4167 31.0369 53.9613 33.6228 56.5781 36.9509C56.7731 37.1956 56.96 37.4417 57.1415 37.6945C58.5871 39.6927 59.7072 41.9317 60.4293 44.34C61.0425 46.3665 61.3679 48.5126 61.3679 50.7354V51.7318C61.2536 54.3351 60.6673 56.8228 59.726 59.1223Z" fill="var(--fill-0, #FF7B4C)"/>
</svg>
